<?xml version="1.0" encoding="utf-8"?>
<!-- Generator: Adobe Illustrator 24.2.1, SVG Export Plug-In . SVG Version: 6.00 Build 0)  -->
<svg version="1.1" id="Layer_1" xmlns="http://www.w3.org/2000/svg" xmlns:xlink="http://www.w3.org/1999/xlink" x="0px" y="0px"
	 viewBox="0 0 62 62" style="enable-background:new 0 0 62 62;" xml:space="preserve">
<style type="text/css">
	.st0{fill:#7C59FF;}
	.st1{fill:#FFFFFF;}
</style>
<g id="Group_53" transform="translate(-553 -231)">
	<g id="Group_1" transform="translate(36.292 107)">
		<g transform="matrix(1, 0, 0, 1, 516.71, 124)">
			<path id="Path_2-2" class="st0" d="M39.4,3.5l19.1,19.1c4.6,4.6,4.6,12.2,0,16.8L39.4,58.6c-4.6,4.6-12.2,4.6-16.8,0L3.5,39.4
				c-4.6-4.6-4.6-12.2,0-16.8L22.6,3.5C27.2-1.1,34.8-1.1,39.4,3.5z"/>
		</g>
	</g>
	<path id="key" class="st1" d="M592.6,259c0,3.4-2.7,6.1-6.1,6.1c-0.4,0-0.8,0-1.1-0.1l-0.8,0.9c-0.2,0.2-0.4,0.3-0.6,0.3h-1.3v1.4
		c0,0.5-0.4,0.8-0.8,0.8h-1.4v1.4c0,0.5-0.4,0.8-0.8,0.8h-3.9c-0.5,0-0.8-0.4-0.8-0.8v-2.7c0-0.2,0.1-0.4,0.2-0.6l5.6-5.6
		c-1.1-3.2,0.7-6.7,3.9-7.7c3.2-1.1,6.7,0.7,7.7,3.9C592.5,257.7,592.6,258.3,592.6,259z M586.5,257.3c0,0.9,0.7,1.7,1.7,1.7
		s1.7-0.7,1.7-1.7c0-0.9-0.7-1.7-1.7-1.7c0,0,0,0,0,0C587.2,255.6,586.5,256.4,586.5,257.3L586.5,257.3z"/>
</g>
</svg>
